<?xml version="1.0" standalone="no"?>
<!DOCTYPE svg PUBLIC "-//W3C//DTD SVG 20010904//EN"
 "http://www.w3.org/TR/2001/REC-SVG-20010904/DTD/svg10.dtd">
<svg version="1.0" xmlns="http://www.w3.org/2000/svg"
 width="117.000000pt" height="105.000000pt" viewBox="0 0 117.000000 105.000000"
 preserveAspectRatio="xMidYMid meet">

<g transform="translate(0.000000,105.000000) scale(0.100000,-0.100000)"
fill="#000000" stroke="none">
<path d="M173 1021 c-6 -25 -30 -27 -55 -4 -10 9 -18 11 -18 5 0 -6 -15 -19
-33 -28 -35 -18 -67 -48 -67 -63 0 -5 11 -19 25 -32 13 -13 25 -29 25 -35 0
-7 9 -14 20 -17 18 -5 20 -14 20 -100 0 -86 2 -95 20 -100 15 -4 20 -14 20
-40 0 -27 5 -37 20 -42 23 -7 27 -45 5 -45 -9 0 -20 -11 -25 -24 -5 -13 -14
-26 -20 -28 -6 -2 -12 -23 -13 -48 -2 -35 2 -45 16 -48 14 -3 17 4 17 32 0 29
4 36 20 36 17 0 20 7 20 40 l0 40 40 0 c33 0 40 -3 40 -20 0 -13 7 -20 20 -20
13 0 20 -7 20 -20 0 -13 7 -20 20 -20 13 0 20 -7 20 -20 0 -13 7 -20 20 -20
13 0 20 -7 20 -20 0 -13 7 -20 20 -20 13 0 20 -7 20 -20 0 -17 -7 -20 -40 -20
-33 0 -40 3 -40 20 0 17 -7 20 -40 20 -33 0 -40 3 -40 20 0 13 -7 20 -20 20
-17 0 -20 -7 -20 -40 0 -33 3 -40 20 -40 13 0 20 -7 20 -20 0 -13 7 -20 20
-20 13 0 20 -7 20 -20 0 -13 7 -20 20 -20 17 0 20 -7 20 -40 0 -33 -3 -40 -20
-40 -13 0 -20 -7 -20 -20 0 -18 -7 -20 -60 -20 -53 0 -60 2 -60 20 0 13 -7 20
-20 20 -13 0 -20 7 -20 20 0 13 -7 20 -20 20 -13 0 -20 7 -20 20 0 17 7 20 40
20 33 0 40 -3 40 -20 0 -13 7 -20 20 -20 13 0 20 -7 20 -20 0 -13 7 -20 20
-20 13 0 20 7 20 20 0 13 -7 20 -20 20 -17 0 -20 7 -20 40 0 33 -3 40 -20 40
-17 0 -20 7 -20 40 0 33 -3 40 -20 40 -17 0 -20 -7 -20 -45 0 -37 -3 -45 -19
-45 -10 0 -21 -9 -24 -20 -3 -11 -12 -20 -21 -20 -23 0 -20 -21 4 -27 11 -3
20 -14 20 -25 0 -11 -9 -22 -20 -25 -25 -7 -26 -23 -1 -30 17 -4 38 -53 22
-51 -40 4 -56 -16 -22 -27 11 -3 23 -15 26 -25 5 -17 15 -19 74 -17 58 2 70 5
77 22 5 11 21 21 36 23 26 3 118 83 118 102 0 18 32 18 50 0 17 -17 34 -20
125 -20 85 0 107 3 111 15 7 16 54 21 54 6 0 -5 21 -30 46 -55 36 -37 52 -46
80 -46 19 0 33 -3 33 -7 -6 -37 0 -41 67 -35 53 4 71 10 91 30 22 22 23 26 9
34 -23 13 -20 45 5 53 21 7 21 8 -6 29 l-28 23 23 23 c20 20 21 24 6 32 -9 5
-16 15 -16 22 0 8 -8 16 -19 19 -27 7 -34 75 -9 90 24 15 26 105 3 113 -8 4
-15 13 -15 21 0 8 -9 17 -20 20 -23 6 -27 43 -5 43 10 0 15 11 15 35 0 24 6
39 20 47 17 11 20 24 20 88 0 87 7 120 25 120 8 0 17 9 20 20 3 11 12 20 20
20 8 0 17 9 20 20 3 11 13 20 20 20 26 0 26 20 1 30 -14 5 -26 14 -26 20 0 5
-14 10 -30 10 -24 0 -33 6 -41 28 l-11 27 -15 -22 c-17 -26 -53 -31 -53 -9 0
23 -19 29 -27 9 -9 -24 -23 -33 -54 -33 -15 0 -29 -7 -33 -15 -3 -8 -12 -15
-21 -15 -8 0 -15 -7 -15 -15 0 -8 9 -15 20 -15 12 0 20 -7 20 -16 0 -9 10 -24
21 -33 17 -14 20 -23 14 -49 -4 -19 -13 -32 -22 -32 -9 0 -49 34 -90 76 -66
66 -79 75 -114 77 -26 1 -43 -4 -51 -16 -7 -9 -27 -20 -45 -23 -25 -5 -34 -2
-45 15 -18 30 -97 30 -116 1 -7 -12 -17 -18 -22 -15 -6 3 -10 1 -10 -5 0 -15
-61 -76 -73 -72 -5 1 -11 -7 -14 -18 -3 -11 -14 -20 -24 -20 -15 0 -19 7 -19
38 0 30 7 43 35 69 37 34 44 53 20 53 -8 0 -19 9 -26 21 -7 13 -17 19 -29 16
-21 -5 -45 7 -45 24 0 22 -26 22 -32 0z m357 -121 c0 -17 7 -20 40 -20 33 0
40 3 40 20 0 18 7 20 60 20 53 0 60 -2 60 -20 0 -13 7 -20 20 -20 19 0 20 -7
20 -120 0 -113 -1 -120 -20 -120 -13 0 -20 -7 -20 -20 0 -13 -7 -20 -20 -20
-13 0 -20 -7 -20 -20 0 -19 -7 -20 -120 -20 -113 0 -120 1 -120 20 0 13 -7 20
-20 20 -13 0 -20 7 -20 20 0 13 -7 20 -20 20 -19 0 -20 7 -20 120 0 113 1 120
20 120 13 0 20 7 20 20 0 18 7 20 60 20 53 0 60 -2 60 -20z m440 -420 c0 -33
3 -40 20 -40 17 0 20 -7 20 -40 0 -33 -3 -40 -20 -40 -17 0 -20 -7 -20 -40 0
-33 -3 -40 -20 -40 -17 0 -20 -7 -20 -40 0 -33 3 -40 20 -40 13 0 20 7 20 20
0 17 7 20 40 20 33 0 40 -3 40 -20 0 -13 -7 -20 -20 -20 -13 0 -20 -7 -20 -20
0 -13 -7 -20 -20 -20 -13 0 -20 -7 -20 -20 0 -18 -7 -20 -60 -20 -53 0 -60 2
-60 20 0 13 -7 20 -20 20 -17 0 -20 7 -20 40 0 33 3 40 20 40 13 0 20 7 20 20
0 13 7 20 20 20 13 0 20 7 20 20 0 13 7 20 20 20 17 0 20 7 20 40 0 33 -3 40
-20 40 -13 0 -20 -7 -20 -20 0 -17 -7 -20 -40 -20 -33 0 -40 -3 -40 -20 0 -17
-7 -20 -40 -20 -33 0 -40 3 -40 20 0 13 7 20 20 20 13 0 20 7 20 20 0 13 7 20
20 20 13 0 20 7 20 20 0 13 7 20 20 20 13 0 20 7 20 20 0 13 7 20 20 20 13 0
20 7 20 20 0 17 7 20 40 20 l40 0 0 -40z"/>
<path d="M890 180 c0 -13 7 -20 20 -20 13 0 20 7 20 20 0 13 -7 20 -20 20 -13
0 -20 -7 -20 -20z"/>
</g>
</svg>
