<svg id="TitleWhite" xmlns="http://www.w3.org/2000/svg" width="524" height="92" viewBox="0 0 524 92">
  <g id="Text">
    <text id="Fr" transform="translate(0 64)" fill="#fff" font-size="80" font-family="Exoplanetaria"><tspan x="0" y="0">Fr</tspan></text>
    <text id="ggy_Knig" data-name="ggy Knig" transform="translate(112 64)" fill="#fff" font-size="80" font-family="Exoplanetaria"><tspan x="0" y="0">ggy Knig</tspan></text>
    <text id="t" transform="translate(488 64)" fill="#fff" font-size="80" font-family="Exoplanetaria"><tspan x="0" y="0">t</tspan></text>
  </g>
  <path id="H_Knight" data-name="H Knight" d="M-54.934-8.045H-64V-64h9.3v18.227C-50.124-48.578-45.985-50-42.4-50a11.436,11.436,0,0,1,9.135,4.324,17.513,17.513,0,0,1,2.974,5.358,9.873,9.873,0,0,1,.7,3.212c-.005.817-.126,20.012,0,20.138a20.551,20.551,0,0,0,1.529,8.92H-38.546a1.28,1.28,0,0,0,.065-.4A1.562,1.562,0,0,0-40.133-9.9h-.307a1.729,1.729,0,0,0,.307-.967,2.084,2.084,0,0,0-2.2-1.933h-8.809a2.084,2.084,0,0,0-2.2,1.933,1.73,1.73,0,0,0,.307.967h-.307A1.562,1.562,0,0,0-55-8.449a1.283,1.283,0,0,0,.065.4ZM-53.8-21.694a45.626,45.626,0,0,1,1.107,6.923h12.141c.318-1.92.45-5.449-2.255-7.51a.594.594,0,0,0-.1-.058c-.034-.016-3.449-1.713-3.527-4.27a6.385,6.385,0,0,0,3.311,1.363,2.3,2.3,0,0,0,.779-.128,3.991,3.991,0,0,0,2.278,1c.764,0,1.741-.405,2.053-2.337a.445.445,0,0,0-.126-.382l-4.679-4.817v-4.6a.492.492,0,0,0-.385-.461A.612.612,0,0,0-43.36-37a.575.575,0,0,0-.451.207l-2.047,2.578-1.433-2.517A.558.558,0,0,0-47.783-37a.612.612,0,0,0-.238.048,12.6,12.6,0,0,0-2.457,1.489,10.367,10.367,0,0,0-2.848,3.256l2.87,2.522a.453.453,0,0,1,.161.342.453.453,0,0,1-.161.342.589.589,0,0,1-.389.141A.589.589,0,0,1-51.233-29l-2.554-2.245a10.672,10.672,0,0,0-.56,1.728l4.573,4.018a.453.453,0,0,1,.161.342.453.453,0,0,1-.161.342.585.585,0,0,1-.389.141.585.585,0,0,1-.389-.141l-4.01-3.523A12.334,12.334,0,0,0-54.65-26.8l4.876,4.284a.453.453,0,0,1,.161.342.453.453,0,0,1-.161.342.585.585,0,0,1-.389.142.585.585,0,0,1-.389-.142l-4.024-3.535a15.776,15.776,0,0,0,.323,1.905l4.479,3.935a.454.454,0,0,1,.161.342.454.454,0,0,1-.161.342.593.593,0,0,1-.39.141.592.592,0,0,1-.389-.141Z" transform="translate(510.832 72.079)" fill="#fff"/>
  <path id="O_Frog" data-name="O Frog" d="M21,42A21,21,0,0,1,6.151,6.151a21,21,0,1,1,29.7,29.7A20.863,20.863,0,0,1,21,42ZM19.293,20.328a4.383,4.383,0,0,1,4.38,4.826l5.02,5.334h3.829a.678.678,0,0,0,.678-.678,1.357,1.357,0,0,0-1.355-1.355H29.572L25.4,24.021l6.542-3.67a2.467,2.467,0,0,0-.032-4.319,29.949,29.949,0,0,0-4.193-1.749,3.382,3.382,0,0,0-6.654,0A13.481,13.481,0,0,0,8.8,27.819a2.7,2.7,0,0,0,2.711,2.669H24.389a.678.678,0,0,0,.678-.678,1.357,1.357,0,0,0-1.355-1.355H20.344l1.516-2.048a3.01,3.01,0,0,0,.366-2.553,3.1,3.1,0,0,0-1.793-1.962,2.826,2.826,0,0,0-1.089-.214,3.311,3.311,0,0,0-1.971.675l-1.388,1.041a.677.677,0,0,1-.95-.135.679.679,0,0,1,.135-.949l1.473-1.105A4.436,4.436,0,0,1,19.293,20.328Zm5.1-4.41A1.017,1.017,0,1,1,25.405,14.9,1.018,1.018,0,0,1,24.389,15.917Z" transform="translate(70 22)" fill="#fff"/>
</svg>
